<svg width="36" height="35" viewBox="0 0 36 35" fill="none" xmlns="http://www.w3.org/2000/svg">
<ellipse cx="6.20375" cy="6.36171" rx="2.06801" ry="2.08632" fill="#6BE072"/>
<ellipse cx="7.13637" cy="21.0717" rx="2.06801" ry="2.08632" fill="#6BE072"/>
<ellipse cx="7.13637" cy="13.0394" rx="2.06801" ry="2.08632" fill="#6BE072"/>
<ellipse cx="6.20375" cy="28.0624" rx="2.06801" ry="2.08632" fill="#6BE072"/>
<ellipse cx="29.7789" cy="6.36171" rx="2.06801" ry="2.08632" fill="#6BE072"/>
<ellipse cx="28.8463" cy="21.0717" rx="2.06801" ry="2.08632" fill="#6BE072"/>
<ellipse cx="28.8463" cy="13.0394" rx="2.06801" ry="2.08632" fill="#6BE072"/>
<ellipse cx="33.9149" cy="13.0393" rx="1.034" ry="1.04316" fill="#6BE072"/>
<ellipse cx="33.9149" cy="21.072" rx="1.034" ry="1.04316" fill="#6BE072"/>
<ellipse cx="34.8455" cy="33.277" rx="1.03401" ry="1.04316" fill="#6BE072"/>
<ellipse cx="22.1278" cy="32.3381" rx="1.03401" ry="1.04316" fill="#6BE072"/>
<ellipse cx="29.8826" cy="32.8596" rx="1.03401" ry="1.04316" fill="#6BE072"/>
<ellipse cx="34.4324" cy="28.1652" rx="1.03401" ry="1.04316" fill="#6BE072"/>
<ellipse cx="13.8553" cy="32.3381" rx="1.03401" ry="1.04316" fill="#6BE072"/>
<ellipse cx="1.13752" cy="33.277" rx="1.03401" ry="1.04316" fill="#6BE072"/>
<ellipse cx="1.55061" cy="28.1652" rx="1.03401" ry="1.04316" fill="#6BE072"/>
<ellipse cx="6.20393" cy="32.8596" rx="1.03401" ry="1.04316" fill="#6BE072"/>
<ellipse cx="2.06819" cy="21.072" rx="1.03401" ry="1.04316" fill="#6BE072"/>
<ellipse cx="2.06819" cy="13.0393" rx="1.03401" ry="1.04316" fill="#6BE072"/>
<ellipse cx="1.03401" cy="1.04316" rx="1.03401" ry="1.04316" fill="#6BE072"/>
<ellipse cx="1.55061" cy="6.25898" rx="1.03401" ry="1.04316" fill="#6BE072"/>
<ellipse cx="6.20393" cy="1.56465" rx="1.03401" ry="1.04316" fill="#6BE072"/>
<ellipse cx="13.5457" cy="2.08613" rx="1.03401" ry="1.04316" fill="#6BE072"/>
<ellipse cx="22.1278" cy="2.08613" rx="1.03401" ry="1.04316" fill="#6BE072"/>
<ellipse cx="29.7791" cy="1.56465" rx="1.03401" ry="1.04316" fill="#6BE072"/>
<ellipse cx="34.8455" cy="1.14765" rx="1.03401" ry="1.04316" fill="#6BE072"/>
<ellipse cx="34.4324" cy="6.25898" rx="1.03401" ry="1.04316" fill="#6BE072"/>
<ellipse cx="22.1276" cy="27.6439" rx="2.06801" ry="2.08632" fill="#6BE072"/>
<ellipse cx="13.8551" cy="27.6439" rx="2.06801" ry="2.08632" fill="#6BE072"/>
<ellipse cx="29.7789" cy="28.0624" rx="2.06801" ry="2.08632" fill="#6BE072"/>
<ellipse cx="22.1276" cy="6.78066" rx="2.06801" ry="2.08632" fill="#6BE072"/>
<ellipse cx="13.5456" cy="6.78066" rx="2.06801" ry="2.08632" fill="#6BE072"/>
<ellipse cx="13.9946" cy="13.1788" rx="3.10202" ry="3.12948" fill="#6BE072"/>
<ellipse cx="13.9946" cy="21.2452" rx="3.10202" ry="3.12948" fill="#6BE072"/>
<ellipse cx="21.9897" cy="13.1788" rx="3.10202" ry="3.12948" fill="#6BE072"/>
<ellipse cx="21.9897" cy="21.2452" rx="3.10202" ry="3.12948" fill="#6BE072"/>
</svg>
